<?xml version="1.0" standalone="no"?>
<!DOCTYPE svg PUBLIC "-//W3C//DTD SVG 20010904//EN"
 "http://www.w3.org/TR/2001/REC-SVG-20010904/DTD/svg10.dtd">
<svg version="1.0" xmlns="http://www.w3.org/2000/svg"
 width="700.000000pt" height="700.000000pt" viewBox="0 0 700.000000 700.000000"
 preserveAspectRatio="xMidYMid meet">
<metadata>
Created by potrace 1.11, written by Peter Selinger 2001-2013
</metadata>
<g transform="translate(0.000000,700.000000) scale(0.100000,-0.100000)"
fill="#000000" stroke="none">
<path d="M5137 6655 c-1 -2 -33 -5 -72 -8 -411 -35 -818 -235 -1109 -546 -22
-24 -48 -51 -56 -60 -9 -9 -29 -34 -45 -56 -16 -22 -35 -46 -42 -53 -20 -21
-118 -184 -157 -261 -38 -75 -100 -237 -117 -306 -5 -22 -12 -49 -15 -60 -13
-48 -41 -235 -44 -290 -28 -526 147 -993 508 -1359 185 -188 431 -343 674
-426 l83 -28 3 -426 2 -425 -423 -3 -424 -3 -36 -28 c-72 -54 -71 -51 -72
-446 -1 -315 1 -357 17 -390 23 -49 37 -65 78 -86 32 -17 67 -19 445 -19 l410
-1 5 -455 c5 -481 5 -474 53 -528 40 -43 88 -48 452 -47 300 1 344 3 372 18
35 19 84 75 91 104 2 10 5 216 7 458 1 242 3 442 4 445 0 3 175 5 389 5 251
-1 403 3 432 10 56 14 86 38 111 91 19 39 20 61 17 401 l-3 360 -25 36 c-14
21 -43 46 -66 57 -38 19 -62 20 -447 20 -224 0 -408 3 -408 8 -1 4 -2 193 -3
421 -1 401 -1 414 19 427 11 8 26 14 33 14 45 0 304 124 426 203 252 165 479
421 613 692 33 67 92 220 117 306 71 240 82 606 25 854 -45 195 -147 435 -254
595 -97 145 -133 172 -201 150 -35 -12 -35 -11 -103 57 -56 55 -67 72 -60 88
4 11 8 34 8 52 1 38 -35 78 -125 137 -32 21 -70 46 -84 56 -42 28 -180 94
-265 128 -112 43 -199 67 -352 96 -72 14 -374 30 -386 21z"/>
<path d="M1712 6623 c-13 -3 -58 -38 -100 -78 -206 -197 -1187 -1185 -1198
-1208 -23 -42 -23 -99 -3 -143 26 -53 482 -510 533 -534 48 -22 116 -18 159
10 18 11 53 41 78 67 26 27 57 58 70 70 l24 22 0 -514 0 -513 -70 -23 c-91
-29 -279 -117 -364 -170 -232 -146 -442 -356 -581 -584 -89 -145 -187 -383
-214 -520 -4 -16 -9 -41 -12 -55 -2 -14 -7 -41 -10 -60 -2 -19 -8 -59 -13 -88
-9 -58 -8 -375 2 -407 3 -11 8 -38 12 -60 32 -222 102 -416 227 -629 260 -441
720 -755 1223 -835 123 -20 137 -21 285 -22 476 -2 906 176 1246 515 183 184
322 397 405 623 33 91 68 210 78 272 6 31 13 70 16 86 9 47 18 182 19 265 1
368 -120 740 -339 1036 -76 102 -79 106 -179 206 -189 190 -413 331 -663 418
l-93 33 0 516 0 516 79 -79 c43 -44 90 -85 105 -93 37 -19 106 -23 143 -8 42
18 521 498 539 540 19 47 18 99 -5 143 -30 56 -512 532 -542 533 -36 2 -52 -1
-76 -13 -20 -10 -29 -5 -83 49 l-60 60 15 37 c9 22 13 47 9 64 -9 37 -484 516
-539 542 -40 19 -72 23 -123 13z"/>
</g>
</svg>
